<?xml version="1.0" encoding="UTF-8"?>
<svg xmlns="http://www.w3.org/2000/svg" xmlns:xlink="http://www.w3.org/1999/xlink" width="25px" height="25px" viewBox="0 0 25 25" version="1.1">
<g id="surface1">
<path style=" stroke:none;fill-rule:nonzero;fill:rgb(0%,0%,0%);fill-opacity:1;" d="M 8.449219 9.25 C 8.449219 11.59375 10.34375 13.488281 12.6875 13.488281 C 15.03125 13.488281 16.925781 11.59375 16.925781 9.25 C 16.925781 6.90625 15.03125 5.011719 12.6875 5.011719 C 10.347656 5.007812 8.449219 6.90625 8.449219 9.25 Z M 8.449219 9.25 "/>
<path style=" stroke:none;fill-rule:nonzero;fill:rgb(0%,0%,0%);fill-opacity:1;" d="M 12.828125 13.488281 C 8.542969 13.488281 5.054688 16.976562 5.054688 21.265625 C 5.054688 21.59375 5.101562 21.972656 5.148438 22.300781 C 7.175781 23.859375 9.71875 24.753906 12.5 24.753906 C 15.609375 24.753906 18.4375 23.574219 20.558594 21.691406 C 20.558594 21.546875 20.558594 21.40625 20.558594 21.265625 C 20.605469 16.929688 17.117188 13.488281 12.828125 13.488281 Z M 12.828125 13.488281 "/>
<path style=" stroke:none;fill-rule:nonzero;fill:rgb(0%,0%,0%);fill-opacity:1;" d="M 12.5 24.75 C 5.714844 24.75 0.25 19.238281 0.25 12.5 C 0.25 5.761719 5.761719 0.25 12.5 0.25 C 19.238281 0.25 24.75 5.761719 24.75 12.5 C 24.75 19.238281 19.285156 24.75 12.5 24.75 Z M 12.5 0.675781 C 5.996094 0.675781 0.71875 5.949219 0.71875 12.453125 C 0.71875 18.953125 5.996094 24.234375 12.5 24.234375 C 19.003906 24.234375 24.28125 18.953125 24.28125 12.453125 C 24.28125 5.949219 19.003906 0.675781 12.5 0.675781 Z M 12.5 0.675781 "/>
</g>
</svg>
